<?xml version="1.0" standalone="no"?><!DOCTYPE svg PUBLIC "-//W3C//DTD SVG 1.1//EN" "http://www.w3.org/Graphics/SVG/1.1/DTD/svg11.dtd"><svg t="1530701127205" class="icon" style="" viewBox="0 0 2048 1024" version="1.1" xmlns="http://www.w3.org/2000/svg" p-id="9138" xmlns:xlink="http://www.w3.org/1999/xlink" width="400" height="200"><defs><style type="text/css"></style></defs><path d="M1786.697801 33.032258C1660.091243 33.032258 1557.958818 135.63534 1557.958818 261.771231 1557.958818 299.894421 1567.371944 336.134937 1584.315574 367.198274L1211.555748 735.722166C1191.788181 724.426422 1169.196676 718.778566 1145.193201 718.778566 1130.132199 718.778566 1116.012508 721.602494 1102.834133 725.838386L952.694758 520.161577C954.106725 513.101725 954.106725 506.041873 954.106725 498.982053 954.106725 424.147671 893.392057 363.433026 818.557698 363.433026 743.723338 363.433026 682.538014 424.147671 682.538014 498.982053L682.538014 501.335337 465.094785 712.660034 285.304059 712.660034C261.300584 673.595557 218.470859 647.238788 169.522599 647.238788 94.217583 647.238788 33.032258 708.424109 33.032258 783.729135 33.032258 859.034129 94.217583 920.219483 169.522599 920.219483 220.82414 920.219483 265.536492 891.50943 289.06931 849.621025L522.514858 849.621025 757.84303 620.882019C777.13994 630.765832 798.319477 635.943044 819.969668 635.943044 835.501327 635.943044 850.562329 633.119083 863.740707 627.941871L1011.997458 832.206749C1010.585488 840.207889 1009.644174 847.738385 1009.644174 855.739557 1009.644174 930.573907 1070.358845 991.288584 1145.193201 991.288584 1218.615593 991.288584 1278.859604 932.456547 1280.742232 859.034129L1678.9175 464.153468C1710.922131 481.0971 1747.633324 490.980881 1786.227144 490.980881 1912.833701 490.980881 2014.96613 388.377798 2014.96613 262.241908 2015.436787 135.63534 1912.833701 33.032258 1786.697801 33.032258L1786.697801 33.032258ZM1789.992395 359.197101C1736.80823 359.197101 1693.037188 315.426056 1693.037188 262.241908 1692.095874 208.587082 1736.337573 165.286681 1789.992395 165.286681 1843.64722 165.286681 1886.947602 209.057726 1886.947602 262.241908 1886.947602 316.367377 1843.176564 359.197101 1789.992395 359.197101L1789.992395 359.197101Z" p-id="9139"></path></svg>