<?xml version="1.0" standalone="no"?><!DOCTYPE svg PUBLIC "-//W3C//DTD SVG 1.1//EN" "http://www.w3.org/Graphics/SVG/1.1/DTD/svg11.dtd"><svg t="1530695631018" class="icon" style="" viewBox="0 0 1024 1024" version="1.1" xmlns="http://www.w3.org/2000/svg" p-id="7375" xmlns:xlink="http://www.w3.org/1999/xlink" width="200" height="200"><defs><style type="text/css"></style></defs><path d="M661.333333 426.666667l0-106.666667c0-25.706667-34.005333-104.213333-85.333333-145.130667L576 128l-128 0 0 46.869333c-51.349333 40.917333-85.333333 119.424-85.333333 145.130667l0 106.666667c0 35.328 42.666667 42.666667 42.666667 64s-42.666667 28.672-42.666667 64l0 341.333333c0 35.328 28.650667 64 64 64l85.333333 0 85.333333 0c35.328 0 64-28.672 64-64L661.333333 554.666667c0-35.328-42.666667-42.666667-42.666667-64S661.333333 461.994667 661.333333 426.666667z" p-id="7376"></path><path d="M576 85.333333c0-11.797333-9.536-21.333333-21.333333-21.333333l-85.333333 0c-11.776 0-21.333333 9.536-21.333333 21.333333l0 85.333333 128 0L576 85.333333z" p-id="7377"></path><path d="M661.333333 597.376 661.333333 554.666667c0-35.328-42.666667-42.666667-42.666667-64s42.666667-28.672 42.666667-64l0-106.666667c0-6.976-2.581333-17.92-7.253333-30.869333-5.973333 3.669333-12.352 6.912-19.328 9.536-9.728 3.669333-19.712 7.296-29.418667 10.752-16.96 6.016-32.917333 6.592-50.816 6.592-24.085333 0-45.824-4.650667-68.885333-10.965333-25.813333-7.082667-52.437333-17.002667-79.189333-19.392-11.797333-1.066667-24.448 0.874667-36.672 3.84C365.184 302.293333 362.666667 313.088 362.666667 320l0 106.666667c0 35.328 42.666667 42.666667 42.666667 64s-42.666667 28.672-42.666667 64l0 341.333333c0 35.328 28.650667 64 64 64l85.333333 0 85.333333 0c35.328 0 64-28.672 64-64L661.333333 597.376" p-id="7378"></path><path d="M661.333333 784.917333c-6.549333 3.648-35.221333 16.853333-41.237333 19.114667-9.6 3.626667-19.456 7.210667-29.013333 10.602667-13.952 4.949333-27.456 5.354667-43.669333 5.354667-22.848 0-43.904-4.885333-63.253333-10.218667-6.442667-1.749333-12.928-3.712-19.456-5.674667-20.352-6.101333-41.386667-12.416-63.466667-14.4-11.392-0.96-24 0.341333-38.592 3.456l0 44.629333c2.176-0.874667 4.352-1.749333 6.464-2.602667 11.498667-2.709333 20.757333-3.733333 28.288-2.986667 17.770667 1.578667 35.861333 7.018667 55.018667 12.778667 6.848 2.048 13.674667 4.074667 20.437333 5.952 22.229333 6.08 46.656 11.712 74.538667 11.712 18.944 0 37.632-0.597333 57.984-7.808 9.813333-3.52 19.946667-7.189333 29.738667-10.88 3.818667-1.429333 15.168-6.464 26.218667-11.584L661.333333 784.917333z" p-id="7379"></path><path d="M620.096 718.677333c-9.6 3.626667-19.456 7.210667-29.013333 10.602667-13.952 4.949333-27.456 5.354667-43.669333 5.354667-22.848 0-43.904-4.885333-63.253333-10.218667-6.442667-1.749333-12.928-3.712-19.456-5.674667-20.352-6.101333-41.386667-12.416-63.466667-14.4-11.392-0.96-24 0.362667-38.592 3.477333l0 44.608c2.176-0.874667 4.352-1.749333 6.464-2.602667 11.498667-2.709333 20.757333-3.754667 28.288-2.986667 17.770667 1.578667 35.861333 7.018667 55.018667 12.778667 6.848 2.048 13.674667 4.074667 20.437333 5.952 22.229333 6.08 46.656 11.712 74.538667 11.712 18.944 0 37.632-0.597333 57.984-7.808 9.813333-3.52 19.946667-7.189333 29.738667-10.88 3.818667-1.429333 15.168-6.464 26.218667-11.584l0-47.466667C654.784 703.232 626.112 716.437333 620.096 718.677333z" p-id="7380"></path><path d="M620.096 633.344c-9.6 3.626667-19.456 7.210667-29.013333 10.602667-13.952 4.949333-27.456 5.354667-43.669333 5.354667-22.848 0-43.904-4.885333-63.253333-10.218667-6.442667-1.749333-12.928-3.712-19.456-5.674667-20.352-6.101333-41.386667-12.416-63.466667-14.4-11.392-0.96-24 0.341333-38.592 3.456l0 44.629333c2.176-0.874667 4.352-1.749333 6.464-2.602667 11.498667-2.709333 20.757333-3.754667 28.288-2.986667 17.770667 1.578667 35.861333 7.018667 55.018667 12.778667 6.848 2.048 13.674667 4.074667 20.437333 5.952 22.229333 6.08 46.656 11.712 74.538667 11.712 18.944 0 37.632-0.597333 57.984-7.808 9.813333-3.52 19.946667-7.189333 29.738667-10.88 3.818667-1.429333 15.168-6.464 26.218667-11.584l0-47.466667C654.784 617.898667 626.112 631.104 620.096 633.344z" p-id="7381"></path></svg>