<?xml version="1.0" standalone="no"?><!DOCTYPE svg PUBLIC "-//W3C//DTD SVG 1.1//EN" "http://www.w3.org/Graphics/SVG/1.1/DTD/svg11.dtd"><svg t="1530701809816" class="icon" style="" viewBox="0 0 1024 1024" version="1.1" xmlns="http://www.w3.org/2000/svg" p-id="882" xmlns:xlink="http://www.w3.org/1999/xlink" width="200" height="200"><defs><style type="text/css"></style></defs><path d="M586.176 276.08a1695.488 1695.488 0 0 0-139.856 0.208c-2.08-40.016 0.176-105.44 6.784-196.288h127.088c5.28 91.68 7.28 157.04 5.984 196.08z m-35.504 292.368c8.56 138.672 16.064 337.984 6.832 352.896-13.648 22.032-86.272 16.576-92.912 0-15.328-38.192-4.672-221.44 5.856-351.808 26.24 0.24 53.568-0.16 80.224-1.088z m195.664-42.464c36.272 25.856 80.016 64.176 106.384 120.56 50.72 108.464 16.432 266.288 9.76 291.376-8.256 31.12-68.064 25.936-84.016 5.456-15.952-20.48 31.6-169.472-12.96-251.904a440.96 440.96 0 0 0-106.176-130.032c34.192-3.456 59.936-7.712 69.824-12.16 6.976-3.12 12.688-11.456 17.184-23.296zM362.608 563.2a440.624 440.624 0 0 0-104.096 128.288c-44.576 82.432 2.976 231.44-12.96 251.904-15.968 20.48-75.776 25.664-84.048-5.44-6.656-25.12-40.96-182.928 9.776-291.392 29.664-63.424 81.328-104 119.584-129.68 5.6 14.672 12.928 26.128 22 32.432 8.832 6.128 26.48 10.672 49.76 13.888z m-3.408-228.72c21.808-16.32 293.28-16.32 313.424 0 20.128 16.32 19.712 163.2 0 173.664-19.712 10.448-287.792 15.296-313.424 0-25.616-15.296-21.792-157.344 0-173.664z" fill="#000000" p-id="883"></path></svg>