<?xml version="1.0" standalone="no"?><!DOCTYPE svg PUBLIC "-//W3C//DTD SVG 1.1//EN" "http://www.w3.org/Graphics/SVG/1.1/DTD/svg11.dtd"><svg t="1530772470903" class="icon" style="" viewBox="0 0 1024 1024" version="1.1" xmlns="http://www.w3.org/2000/svg" p-id="5977" xmlns:xlink="http://www.w3.org/1999/xlink" width="200" height="200"><defs><style type="text/css"></style></defs><path d="M-150.763 1045.813c0-354.992 0-710.066 0-1065.059 0.994-3.23 2.237-6.463 2.983-9.776 9.030-41.422 29.493-76.134 66.194-98.419 17.646-10.603 38.606-15.657 58.075-23.28 357.063 0 714.126 0 1071.273 0 1.987 0.911 3.81 2.154 5.883 2.567 71.828 15.823 121.119 76.218 121.119 148.956 0 342.15 0 684.385 0 1026.535 0 82.181-65.116 147.382-147.547 147.382-344.139 0.083-688.278 0.166-1032.417-0.083-58.902-0.083-101.983-28.002-128.741-79.365-7.954-15.326-11.348-32.89-16.817-49.459zM1064.495 510.384c0-170.496 0-340.909 0-511.403 0-23.611-15.326-39.103-39.353-40.015-3.563-0.166-7.043 0-10.603 0-335.773 0-671.543 0-1007.397 0-32.972 0-47.306 14-47.306 47.306-0.083 338.754-0.083 677.425 0 1016.18 0 29.163 13.255 42.252 42.666 43.577 4.39 0.166 8.865 0.083 13.255 0.083 330.469 0 660.939 0 991.491-0.083 7.457 0 14.995-0.25 22.45-1.076 19.386-2.071 32.143-14.746 34.298-34.048 0.58-5.22 0.497-10.521 0.497-15.741 0-168.259 0-336.517 0-504.777z" p-id="5978"></path><path d="M54.446 140.646c54.678 0 108.445 0 163.869 0 0 35.871 0 70.916 0 107.782 25.268-27.257 56.748-29.825 83.093-8.45 32.061-22.369 65.116-18.474 83.425 11.433 8.617-19.552 24.026-24.853 43.825-24.771 19.966 0.083 35.706 4.889 44.405 26.346 7.457-18.060 19.716-26.346 38.026-26.014 15.988 0.25 32.391-1.657 43.246 13.503 26.676-22.617 76.465-17.149 84.005 12.509 7.87-17.646 19.966-26.429 38.441-26.179 16.073 0.25 32.226-1.161 43.246 13.339 33.055-21.043 62.052-18.89 83.508 7.623 0-36.7 0-71.248 0-106.871 56.252 0 110.682 0 166.022 0 0 247.044 0 494.007 0 742.127-54.18 0-108.694 0-164.862 0 0-30.986 0-62.218 0-93.447-11.266 13.503-24.273 18.972-41.091 18.309-15.161-0.662-30.405 0.746-40.595-13.255-34.546 22.369-64.702 18.722-84.752-10.77-7.539 16.486-19.716 24.771-38.192 23.942-15.906-0.746-32.391 1.906-42.996-13.586-31.811 23.86-67.851 18.972-83.342-10.356-24.937 34.132-64.288 34.795-89.555 0.58-7.788 15.575-19.469 24.191-37.612 23.362-15.823-0.746-32.391 2.154-44.239-14.166-11.929 14.58-27.67 13.835-43.659 14.332-17.232 0.58-29.577-5.966-40.179-19.966 0 31.563 0 63.211 0 95.52-55.422 0-109.19 0-163.95 0-0.083-247.293-0.083-494.586-0.083-742.874z" p-id="5979"></path></svg>